<mxfile host="app.diagrams.net" modified="2023-03-31T08:58:12.803Z" agent="Mozilla/5.0 (X11; Linux x86_64) AppleWebKit/537.36 (KHTML, like Gecko) Chrome/111.0.0.0 Safari/537.36" etag="yI07ccuSbAO0TkCfWc7R" version="21.1.2" type="github">
  <diagram name="第 1 页" id="-zMW5tQ5JQL2yxhpYoSU">
    <mxGraphModel dx="1562" dy="786" grid="1" gridSize="10" guides="1" tooltips="1" connect="1" arrows="1" fold="1" page="1" pageScale="1" pageWidth="827" pageHeight="1169" math="0" shadow="0">
      <root>
        <mxCell id="0" />
        <mxCell id="1" parent="0" />
        <mxCell id="x9sym80_S-ilNRmIAc7_-5" style="edgeStyle=orthogonalEdgeStyle;rounded=0;orthogonalLoop=1;jettySize=auto;html=1;entryX=0.015;entryY=0.393;entryDx=0;entryDy=0;entryPerimeter=0;" edge="1" parent="1" source="x9sym80_S-ilNRmIAc7_-1" target="x9sym80_S-ilNRmIAc7_-4">
          <mxGeometry relative="1" as="geometry" />
        </mxCell>
        <mxCell id="x9sym80_S-ilNRmIAc7_-1" value="Mobile" style="rounded=1;whiteSpace=wrap;html=1;fillColor=#D1FFE3;" vertex="1" parent="1">
          <mxGeometry x="60" y="208" width="120" height="60" as="geometry" />
        </mxCell>
        <mxCell id="x9sym80_S-ilNRmIAc7_-6" style="edgeStyle=orthogonalEdgeStyle;rounded=0;orthogonalLoop=1;jettySize=auto;html=1;entryX=0;entryY=0.479;entryDx=0;entryDy=0;entryPerimeter=0;" edge="1" parent="1" source="x9sym80_S-ilNRmIAc7_-2" target="x9sym80_S-ilNRmIAc7_-4">
          <mxGeometry relative="1" as="geometry" />
        </mxCell>
        <mxCell id="x9sym80_S-ilNRmIAc7_-2" value="Web" style="rounded=1;whiteSpace=wrap;html=1;fillColor=#F3DBFF;" vertex="1" parent="1">
          <mxGeometry x="60" y="328" width="120" height="60" as="geometry" />
        </mxCell>
        <mxCell id="x9sym80_S-ilNRmIAc7_-19" style="edgeStyle=orthogonalEdgeStyle;rounded=0;orthogonalLoop=1;jettySize=auto;html=1;entryX=0.003;entryY=0.557;entryDx=0;entryDy=0;entryPerimeter=0;" edge="1" parent="1" source="x9sym80_S-ilNRmIAc7_-3" target="x9sym80_S-ilNRmIAc7_-4">
          <mxGeometry relative="1" as="geometry" />
        </mxCell>
        <mxCell id="x9sym80_S-ilNRmIAc7_-3" value="Api" style="rounded=1;whiteSpace=wrap;html=1;fillColor=#CDA2BE;" vertex="1" parent="1">
          <mxGeometry x="60" y="448" width="120" height="60" as="geometry" />
        </mxCell>
        <mxCell id="x9sym80_S-ilNRmIAc7_-21" style="edgeStyle=orthogonalEdgeStyle;rounded=0;orthogonalLoop=1;jettySize=auto;html=1;entryX=0;entryY=0.5;entryDx=0;entryDy=0;" edge="1" parent="1" source="x9sym80_S-ilNRmIAc7_-4" target="x9sym80_S-ilNRmIAc7_-20">
          <mxGeometry relative="1" as="geometry" />
        </mxCell>
        <mxCell id="x9sym80_S-ilNRmIAc7_-4" value="" style="rounded=0;whiteSpace=wrap;html=1;fillColor=#B0EAFF;" vertex="1" parent="1">
          <mxGeometry x="304" y="101" width="156" height="538" as="geometry" />
        </mxCell>
        <mxCell id="x9sym80_S-ilNRmIAc7_-9" value="Allow Deny List" style="rounded=0;whiteSpace=wrap;html=1;fillColor=#B0EAFF;" vertex="1" parent="1">
          <mxGeometry x="322" y="179" width="120" height="60" as="geometry" />
        </mxCell>
        <mxCell id="x9sym80_S-ilNRmIAc7_-10" value="Authentication" style="rounded=0;whiteSpace=wrap;html=1;fillColor=#B0EAFF;" vertex="1" parent="1">
          <mxGeometry x="322" y="259" width="120" height="60" as="geometry" />
        </mxCell>
        <mxCell id="x9sym80_S-ilNRmIAc7_-11" value="Rate Limit&amp;amp;Circuit Breaker" style="rounded=0;whiteSpace=wrap;html=1;fillColor=#B0EAFF;" vertex="1" parent="1">
          <mxGeometry x="322" y="339" width="120" height="60" as="geometry" />
        </mxCell>
        <mxCell id="x9sym80_S-ilNRmIAc7_-12" value="Routing" style="rounded=0;whiteSpace=wrap;html=1;fillColor=#B0EAFF;" vertex="1" parent="1">
          <mxGeometry x="322" y="419" width="120" height="60" as="geometry" />
        </mxCell>
        <mxCell id="x9sym80_S-ilNRmIAc7_-13" value="Monitoring" style="rounded=0;whiteSpace=wrap;html=1;fillColor=#B0EAFF;" vertex="1" parent="1">
          <mxGeometry x="322" y="499" width="120" height="60" as="geometry" />
        </mxCell>
        <mxCell id="x9sym80_S-ilNRmIAc7_-14" value="Cache" style="rounded=0;whiteSpace=wrap;html=1;fillColor=#B0EAFF;" vertex="1" parent="1">
          <mxGeometry x="322" y="569" width="120" height="60" as="geometry" />
        </mxCell>
        <mxCell id="x9sym80_S-ilNRmIAc7_-18" value="&lt;font style=&quot;font-size: 14px;&quot;&gt;API-Gateway&lt;/font&gt;" style="text;html=1;strokeColor=none;fillColor=none;align=center;verticalAlign=middle;whiteSpace=wrap;rounded=0;" vertex="1" parent="1">
          <mxGeometry x="332" y="121" width="100" height="30" as="geometry" />
        </mxCell>
        <mxCell id="x9sym80_S-ilNRmIAc7_-20" value="" style="rounded=0;whiteSpace=wrap;html=1;fillColor=#FFE6CC;" vertex="1" parent="1">
          <mxGeometry x="531.5" y="189" width="260" height="360" as="geometry" />
        </mxCell>
        <mxCell id="x9sym80_S-ilNRmIAc7_-22" value="&lt;font style=&quot;font-size: 14px;&quot;&gt;Microservices&lt;/font&gt;" style="text;html=1;strokeColor=none;fillColor=none;align=center;verticalAlign=middle;whiteSpace=wrap;rounded=0;" vertex="1" parent="1">
          <mxGeometry x="590" y="194" width="100" height="30" as="geometry" />
        </mxCell>
        <mxCell id="x9sym80_S-ilNRmIAc7_-23" value="" style="sketch=0;aspect=fixed;pointerEvents=1;shadow=0;dashed=0;html=1;strokeColor=none;labelPosition=center;verticalLabelPosition=bottom;verticalAlign=top;align=center;fillColor=#00188D;shape=mxgraph.mscae.enterprise.application_server2" vertex="1" parent="1">
          <mxGeometry x="570" y="239" width="43" height="50" as="geometry" />
        </mxCell>
        <mxCell id="x9sym80_S-ilNRmIAc7_-24" value="&lt;font style=&quot;font-size: 14px;&quot;&gt;Service1&lt;/font&gt;" style="text;html=1;strokeColor=none;fillColor=none;align=center;verticalAlign=middle;whiteSpace=wrap;rounded=0;" vertex="1" parent="1">
          <mxGeometry x="541.5" y="289" width="100" height="30" as="geometry" />
        </mxCell>
        <mxCell id="x9sym80_S-ilNRmIAc7_-25" value="" style="sketch=0;aspect=fixed;pointerEvents=1;shadow=0;dashed=0;html=1;strokeColor=none;labelPosition=center;verticalLabelPosition=bottom;verticalAlign=top;align=center;fillColor=#00188D;shape=mxgraph.mscae.enterprise.application_server2" vertex="1" parent="1">
          <mxGeometry x="648.5" y="239" width="43" height="50" as="geometry" />
        </mxCell>
        <mxCell id="x9sym80_S-ilNRmIAc7_-26" value="&lt;font style=&quot;font-size: 14px;&quot;&gt;Service2&lt;/font&gt;" style="text;html=1;strokeColor=none;fillColor=none;align=center;verticalAlign=middle;whiteSpace=wrap;rounded=0;" vertex="1" parent="1">
          <mxGeometry x="620" y="289" width="100" height="30" as="geometry" />
        </mxCell>
        <mxCell id="x9sym80_S-ilNRmIAc7_-27" value="" style="sketch=0;aspect=fixed;pointerEvents=1;shadow=0;dashed=0;html=1;strokeColor=none;labelPosition=center;verticalLabelPosition=bottom;verticalAlign=top;align=center;fillColor=#00188D;shape=mxgraph.mscae.enterprise.application_server2" vertex="1" parent="1">
          <mxGeometry x="720" y="239" width="43" height="50" as="geometry" />
        </mxCell>
        <mxCell id="x9sym80_S-ilNRmIAc7_-28" value="&lt;font style=&quot;font-size: 14px;&quot;&gt;Service3&lt;/font&gt;" style="text;html=1;strokeColor=none;fillColor=none;align=center;verticalAlign=middle;whiteSpace=wrap;rounded=0;" vertex="1" parent="1">
          <mxGeometry x="691.5" y="289" width="100" height="30" as="geometry" />
        </mxCell>
        <mxCell id="x9sym80_S-ilNRmIAc7_-29" value="" style="sketch=0;aspect=fixed;pointerEvents=1;shadow=0;dashed=0;html=1;strokeColor=none;labelPosition=center;verticalLabelPosition=bottom;verticalAlign=top;align=center;fillColor=#00188D;shape=mxgraph.mscae.enterprise.application_server2" vertex="1" parent="1">
          <mxGeometry x="577" y="339" width="43" height="50" as="geometry" />
        </mxCell>
        <mxCell id="x9sym80_S-ilNRmIAc7_-30" value="&lt;font style=&quot;font-size: 14px;&quot;&gt;Service4&lt;/font&gt;" style="text;html=1;strokeColor=none;fillColor=none;align=center;verticalAlign=middle;whiteSpace=wrap;rounded=0;" vertex="1" parent="1">
          <mxGeometry x="548.5" y="389" width="100" height="30" as="geometry" />
        </mxCell>
        <mxCell id="x9sym80_S-ilNRmIAc7_-31" value="" style="sketch=0;aspect=fixed;pointerEvents=1;shadow=0;dashed=0;html=1;strokeColor=none;labelPosition=center;verticalLabelPosition=bottom;verticalAlign=top;align=center;fillColor=#00188D;shape=mxgraph.mscae.enterprise.application_server2" vertex="1" parent="1">
          <mxGeometry x="658.5" y="339" width="43" height="50" as="geometry" />
        </mxCell>
        <mxCell id="x9sym80_S-ilNRmIAc7_-32" value="&lt;font style=&quot;font-size: 14px;&quot;&gt;Service5&lt;/font&gt;" style="text;html=1;strokeColor=none;fillColor=none;align=center;verticalAlign=middle;whiteSpace=wrap;rounded=0;" vertex="1" parent="1">
          <mxGeometry x="630" y="389" width="100" height="30" as="geometry" />
        </mxCell>
        <mxCell id="x9sym80_S-ilNRmIAc7_-33" value="" style="sketch=0;aspect=fixed;pointerEvents=1;shadow=0;dashed=0;html=1;strokeColor=none;labelPosition=center;verticalLabelPosition=bottom;verticalAlign=top;align=center;fillColor=#00188D;shape=mxgraph.mscae.enterprise.application_server2" vertex="1" parent="1">
          <mxGeometry x="720" y="339" width="43" height="50" as="geometry" />
        </mxCell>
        <mxCell id="x9sym80_S-ilNRmIAc7_-34" value="&lt;font style=&quot;font-size: 14px;&quot;&gt;Service6&lt;/font&gt;" style="text;html=1;strokeColor=none;fillColor=none;align=center;verticalAlign=middle;whiteSpace=wrap;rounded=0;" vertex="1" parent="1">
          <mxGeometry x="691.5" y="389" width="100" height="30" as="geometry" />
        </mxCell>
        <mxCell id="x9sym80_S-ilNRmIAc7_-35" value="" style="sketch=0;aspect=fixed;pointerEvents=1;shadow=0;dashed=0;html=1;strokeColor=none;labelPosition=center;verticalLabelPosition=bottom;verticalAlign=top;align=center;fillColor=#00188D;shape=mxgraph.mscae.enterprise.application_server2" vertex="1" parent="1">
          <mxGeometry x="577" y="438" width="43" height="50" as="geometry" />
        </mxCell>
        <mxCell id="x9sym80_S-ilNRmIAc7_-36" value="&lt;font style=&quot;font-size: 14px;&quot;&gt;Service7&lt;/font&gt;" style="text;html=1;strokeColor=none;fillColor=none;align=center;verticalAlign=middle;whiteSpace=wrap;rounded=0;" vertex="1" parent="1">
          <mxGeometry x="548.5" y="488" width="100" height="30" as="geometry" />
        </mxCell>
        <mxCell id="x9sym80_S-ilNRmIAc7_-37" value="" style="sketch=0;aspect=fixed;pointerEvents=1;shadow=0;dashed=0;html=1;strokeColor=none;labelPosition=center;verticalLabelPosition=bottom;verticalAlign=top;align=center;fillColor=#00188D;shape=mxgraph.mscae.enterprise.application_server2" vertex="1" parent="1">
          <mxGeometry x="658.5" y="438" width="43" height="50" as="geometry" />
        </mxCell>
        <mxCell id="x9sym80_S-ilNRmIAc7_-38" value="&lt;font style=&quot;font-size: 14px;&quot;&gt;Service8&lt;/font&gt;" style="text;html=1;strokeColor=none;fillColor=none;align=center;verticalAlign=middle;whiteSpace=wrap;rounded=0;" vertex="1" parent="1">
          <mxGeometry x="630" y="488" width="100" height="30" as="geometry" />
        </mxCell>
        <mxCell id="x9sym80_S-ilNRmIAc7_-39" value="" style="sketch=0;aspect=fixed;pointerEvents=1;shadow=0;dashed=0;html=1;strokeColor=none;labelPosition=center;verticalLabelPosition=bottom;verticalAlign=top;align=center;fillColor=#00188D;shape=mxgraph.mscae.enterprise.application_server2" vertex="1" parent="1">
          <mxGeometry x="720" y="438" width="43" height="50" as="geometry" />
        </mxCell>
        <mxCell id="x9sym80_S-ilNRmIAc7_-40" value="&lt;font style=&quot;font-size: 14px;&quot;&gt;ServiceN&lt;/font&gt;" style="text;html=1;strokeColor=none;fillColor=none;align=center;verticalAlign=middle;whiteSpace=wrap;rounded=0;" vertex="1" parent="1">
          <mxGeometry x="691.5" y="488" width="100" height="30" as="geometry" />
        </mxCell>
      </root>
    </mxGraphModel>
  </diagram>
</mxfile>
